<svg id="Capa_1" data-name="Capa 1" xmlns="http://www.w3.org/2000/svg" xmlns:xlink="http://www.w3.org/1999/xlink" viewBox="0 0 600 600"><defs><style>.cls-1{fill:url(#Degradado_sin_nombre_8);}.cls-2{fill:#2dcccd;}.cls-3{fill:url(#Degradado_sin_nombre_13);}.cls-4{fill:#fff;}.cls-5{fill:#f8cd50;}.cls-6{fill:url(#Degradado_sin_nombre_12);}</style><linearGradient id="Degradado_sin_nombre_8" x1="218.39" y1="586.23" x2="429.25" y2="189.68" gradientTransform="matrix(1, 0, 0, -1, 0, 660)" gradientUnits="userSpaceOnUse"><stop offset="0" stop-color="#192647"/><stop offset="0" stop-color="#192647" stop-opacity="0.5"/><stop offset="1" stop-color="#192647" stop-opacity="0"/></linearGradient><linearGradient id="Degradado_sin_nombre_13" x1="389.03" y1="316.4" x2="215.48" y2="316.4" gradientTransform="matrix(1, 0, 0, -1, -35, 660)" gradientUnits="userSpaceOnUse"><stop offset="0" stop-color="#028484" stop-opacity="0.4"/><stop offset="1" stop-color="#028484" stop-opacity="0"/></linearGradient><linearGradient id="Degradado_sin_nombre_12" x1="500.71" y1="412.37" x2="287.63" y2="412.37" gradientTransform="matrix(1, 0, 0, -1, 0, 660)" gradientUnits="userSpaceOnUse"><stop offset="0" stop-color="#c49735" stop-opacity="0.4"/><stop offset="1" stop-color="#c49735" stop-opacity="0"/></linearGradient></defs><title>RESEARCH</title><path class="cls-1" d="M545,395.55V189.1a20.34,20.34,0,0,0-20.33-20.33H311.86a38.29,38.29,0,0,0-38.28,38.28h0v97.08H208.42a31.19,31.19,0,0,0-31.21,31.12h0V499.61a2.6,2.6,0,0,0,2.65,2.65,2.43,2.43,0,0,0,1.86-.8l32.09-32H377.9a20.34,20.34,0,0,0,20.34-20.34V371.76H500.09l36.42,36.34a5,5,0,0,0,7.08,0,4.87,4.87,0,0,0,1.41-3.54Z"/><path class="cls-2" d="M153.33,260.9H322.82A31.2,31.2,0,0,1,354,292.1V406a20.33,20.33,0,0,1-20.33,20.33H169.6l-32.09,32a2.66,2.66,0,0,1-4.51-1.86V281.23A20.33,20.33,0,0,1,153.33,260.9Z"/><path class="cls-3" d="M322.82,260.9h-26L180.48,426.31H333.7A20.33,20.33,0,0,0,354,406h0V292A31.18,31.18,0,0,0,322.82,260.9Z"/><path class="cls-4" d="M310.62,347.19H176.41a4.43,4.43,0,0,1,0-8.85H310.62a4.43,4.43,0,0,1,0,8.85Z"/><path class="cls-4" d="M310.62,320.66H176.41a4.42,4.42,0,1,1,0-8.84H310.62a4.42,4.42,0,0,1,0,8.84Z"/><path class="cls-4" d="M246.26,373.53H176.41a4.42,4.42,0,0,1,0-8.84h69.85a4.42,4.42,0,0,1,0,8.84Z"/><path class="cls-5" d="M480.46,125.45H249.7a20.33,20.33,0,0,0-20.33,20.33v162.5a20.34,20.34,0,0,0,20.33,20.34H455.88L496.29,369a2.65,2.65,0,0,0,4.5-1.85V145.78a20.33,20.33,0,0,0-20.33-20.33Z"/><path class="cls-6" d="M480.46,125.45H430.51L287.63,328.62H455.79L496.2,369a2.66,2.66,0,0,0,4.51-1.85V145.87a20.23,20.23,0,0,0-20.25-20.42Z"/><path class="cls-4" d="M447.48,231H282.68a4.42,4.42,0,0,1,0-8.84h164.8a4.42,4.42,0,0,1,0,8.84Z"/><path class="cls-4" d="M447.48,204.49H282.68a4.42,4.42,0,0,1,0-8.84h164.8a4.42,4.42,0,0,1,0,8.84Z"/><path class="cls-4" d="M368.35,257.54H282.68a4.43,4.43,0,0,1,0-8.85h85.67a4.43,4.43,0,0,1,0,8.85Z"/></svg>