<svg id="Capa_1" data-name="Capa 1" xmlns="http://www.w3.org/2000/svg" xmlns:xlink="http://www.w3.org/1999/xlink" viewBox="0 0 600 600"><defs><style>.cls-1{fill:url(#Degradado_sin_nombre);}.cls-2{fill:#cdeefe;}.cls-3{fill:url(#Degradado_sin_nombre_2);}.cls-4{opacity:0.35;}.cls-5{fill:#49a5e6;}.cls-6{fill:#1973b8;}.cls-7{fill:#28ad68;}.cls-8{fill:#fff;}.cls-9{fill:none;}</style><linearGradient id="Degradado_sin_nombre" x1="195.46" y1="472.9" x2="418.04" y2="54.28" gradientTransform="matrix(1, 0, 0, -1, 0, 600.79)" gradientUnits="userSpaceOnUse"><stop offset="0" stop-color="#192647"/><stop offset="0" stop-color="#192647" stop-opacity="0.5"/><stop offset="1" stop-color="#192647" stop-opacity="0"/></linearGradient><linearGradient id="Degradado_sin_nombre_2" x1="407.91" y1="3601.56" x2="166.42" y2="3601.56" gradientTransform="translate(0 -3308.8)" gradientUnits="userSpaceOnUse"><stop offset="0" stop-color="#043263" stop-opacity="0.1"/><stop offset="1" stop-color="#043263" stop-opacity="0"/></linearGradient></defs><path class="cls-1" d="M453.7,422.3V248.9l-44-44h0l-40.2-40.1H201a2.6,2.6,0,0,0-2.6,2.6h0V497.3a2.6,2.6,0,0,0,2.6,2.6H377.7a56,56,0,1,0,95.7-58.3,57.7,57.7,0,0,0-19.7-19.3Zm-68-173.4h0L250,499.2Z"/><path class="cls-2" d="M407.9,202.8l-84.3-84.3H157.7a2.9,2.9,0,0,0-2.8,2.8V448.1a2.6,2.6,0,0,0,2.5,2.6H405.3a2.6,2.6,0,0,0,2.6-2.5h0Z"/><path class="cls-3" d="M338.2,134,166.4,450.7l234.6.9h4.3a2.6,2.6,0,0,0,2.6-2.5h0V203.7Z"/><g class="cls-4"><path class="cls-5" d="M273.7,162.4H188.5a4.2,4.2,0,0,1-4.1-4.5,4.3,4.3,0,0,1,4.1-4.1h85.2a4.4,4.4,0,0,1,4.5,4.1,4.3,4.3,0,0,1-4.1,4.5Z"/></g><g class="cls-4"><path class="cls-5" d="M273.7,186.5H188.5a4.2,4.2,0,0,1-4.1-4.5,4.3,4.3,0,0,1,4.1-4.1h85.2a4.4,4.4,0,0,1,4.5,4.1,4.3,4.3,0,0,1-4.1,4.5Z"/></g><g class="cls-4"><path class="cls-5" d="M246.7,410.2H188.2a4.3,4.3,0,0,1-4.3-4.3,4.3,4.3,0,0,1,4.3-4.3h58.5a4.3,4.3,0,0,1,4.3,4.3A4.3,4.3,0,0,1,246.7,410.2Z"/></g><path class="cls-6" d="M326.8,202.8h81.1l-84.3-84.3v81.2a3,3,0,0,0,3,3.1Z"/><g class="cls-4"><path class="cls-5" d="M281.4,276h-68a4.3,4.3,0,0,1-4.1-4.5,4.3,4.3,0,0,1,4.1-4.1h68a4.3,4.3,0,0,1,4.1,4.5A4.3,4.3,0,0,1,281.4,276Z"/><path class="cls-5" d="M281.4,300.1h-68a4.3,4.3,0,0,1-4.1-4.5,4.3,4.3,0,0,1,4.1-4.1h68a4.3,4.3,0,0,1,4.1,4.5A4.3,4.3,0,0,1,281.4,300.1Z"/><path class="cls-5" d="M281.4,324.2h-68a4.3,4.3,0,1,1,0-8.6h68a4.3,4.3,0,1,1,0,8.6Z"/><path class="cls-5" d="M281.4,348.3h-68a4.3,4.3,0,0,1,0-8.6h68a4.3,4.3,0,0,1,4.1,4.5A4.3,4.3,0,0,1,281.4,348.3Z"/><path class="cls-5" d="M365.7,242.4H188.5a4.3,4.3,0,0,0-4.3,4.3h0V367.2a4.1,4.1,0,0,0,4.2,4.3H365.7a4.2,4.2,0,0,0,4.3-4.2h0V246.7a4.2,4.2,0,0,0-4.2-4.3Zm-173,8.6H302.1V362.9H192.8ZM361.4,362.9H310.7V251h50.7Z"/></g><path class="cls-7" d="M445.1,424.6a56.9,56.9,0,1,1-56.9-56.8,56.9,56.9,0,0,1,56.9,56.8h0"/><path class="cls-8" d="M376.5,449.5a4.3,4.3,0,0,1-3-1.3L356,430.7a4.4,4.4,0,0,1,0-6.2h.1a4.2,4.2,0,0,1,6,0l14.4,14.4L414.4,401a4.4,4.4,0,0,1,6.2-.3,4.5,4.5,0,0,1,.3,6.3h0l-.3.2-41,41A4.4,4.4,0,0,1,376.5,449.5Z"/><rect class="cls-9" width="600" height="600"/></svg>